#!OML:ASF F:\VICON\USERDATA\INSTALL\rory3\rory3.ASF
:FULLY-SPECIFIED
:DEGREES
1603
root -0.193429 18.1266 -2.7405 0.961 3.3549 0.0224244
lowerback 9.13056 -2.90884 -4.83393
upperback 0.507156 -4.41965 -1.21252
thorax -4.3171 -2.10147 1.99757
lowerneck -13.9659 -1.10791 -8.66157
upperneck 7.58268 -0.985895 10.2807
head 4.64661 -0.0908897 4.56176
rclavicle -1.94809e-014 -1.03368e-014
rhumerus -51.1903 -16.6581 -40.0507
rradius 78.8118
rwrist 4.52388
rhand -32.3819 10.7646
rfingers 7.12502
rthumb -5.61748 -19.1409
lclavicle -1.94809e-014 -1.03368e-014
lhumerus 2.05468 -18.4894 76.2952
lradius 101.675
lwrist -4.74215
lhand -35.5465 7.51109
lfingers 7.12502
lthumb -8.67221 37.313
rfemur -4.30991 20.6598 8.07684
rtibia 24.009
rfoot -22.5564 -18.5295
rtoes -11.292
lfemur -7.5584 -7.86848 -2.31295
ltibia 17.6433
lfoot -10.3819 12.8666
ltoes -11.3306
1604
root -0.206974 18.1157 -2.73288 0.920012 3.53492 0.123564
lowerback 9.24716 -2.9721 -4.80932
upperback 0.504773 -4.50462 -1.13289
thorax -4.37451 -2.1415 2.08374
lowerneck -13.8019 -1.05044 -8.79251
upperneck 7.53704 -0.891825 10.2752
head 4.59656 -0.0533579 4.58735
rclavicle -1.12313e-014 -1.59028e-015
rhumerus -51.5152 -16.5454 -40.2341
rradius 78.8707
rwrist 4.08032
rhand -32.3887 10.7833
rfingers 7.12502
rthumb -5.62403 -19.122
lclavicle -1.12313e-014 -1.59028e-015
lhumerus 0.959634 -18.9979 76.8698
lradius 101.962
lwrist -4.44309
lhand -35.0316 7.53875
lfingers 7.12502
lthumb -8.17531 37.3606
rfemur -4.47441 20.3707 8.01156
rtibia 24.5392
rfoot -22.9192 -18.2801
rtoes -10.8733
lfemur -7.72717 -7.90972 -2.38358
ltibia 17.9971
lfoot -10.5356 12.7165
ltoes -11.8832
1605
root -0.223869 18.0973 -2.72854 0.883691 3.69735 0.261833
lowerback 9.3084 -3.00374 -4.83318
upperback 0.557072 -4.54759 -1.07105
thorax -4.34412 -2.1633 2.16795
lowerneck -13.6773 -1.01179 -8.87147
upperneck 7.40418 -0.822582 10.2472
head 4.52847 -0.027079 4.59414
rclavicle 7.12146e-014 1.59028e-015
rhumerus -51.6992 -16.5363 -40.5207
rradius 78.8349
rwrist 3.61847
rhand -32.3701 10.6497
rfingers 7.12502
rthumb -5.60606 -19.2561
lclavicle 7.12146e-014 1.59028e-015
lhumerus -0.0483923 -19.4953 77.4568
lradius 102.267
lwrist -4.09488
lhand -34.3672 7.36951
lfingers 7.12502
lthumb -7.53403 37.2153
rfemur -4.70555 20.06 7.89948
rtibia 25.1598
rfoot -23.3272 -18.0374
rtoes -10.6071
lfemur -7.94702 -7.88383 -2.47545
ltibia 18.3934
lfoot -10.6121 12.536
ltoes -13.0362
1606
root -0.241926 18.0797 -2.72542 0.918275 3.84547 0.363969
lowerback 9.3232 -3.02362 -4.7536
upperback 0.567101 -4.56524 -1.05139
thorax -4.34515 -2.17354 2.14691
lowerneck -13.4767 -0.97773 -8.70947
upperneck 7.20659 -0.786648 10.0384
head 4.42957 -0.0230821 4.4988
rclavicle -1.70458e-014 1.27222e-014
rhumerus -51.9599 -16.4447 -40.9526
rradius 78.853
rwrist 3.18744
rhand -32.7846 10.4392
rfingers 7.12502
rthumb -6.00626 -19.4557
lclavicle -1.70458e-014 1.27222e-014
lhumerus -1.19222 -20.0161 77.9816
lradius 102.682
lwrist -3.93605
lhand -33.4389 7.86674
lfingers 7.12502
lthumb -6.63793 37.7427
rfemur -5.06507 19.6846 7.80085
rtibia 25.8724
rfoot -23.684 -17.7629
rtoes -10.8526
lfemur -8.27744 -7.82143 -2.50986
ltibia 18.8382
lfoot -10.7083 12.3608
ltoes -13.7774
